<svg xmlns="http://www.w3.org/2000/svg" width="1200" height="630" viewBox="0 0 1200 630" role="img" aria-label="DoWhiz">
  <defs>
    <linearGradient id="bg" x1="0" y1="0" x2="1" y2="1">
      <stop offset="0" stop-color="#04060b" />
      <stop offset="1" stop-color="#0a0d16" />
    </linearGradient>
    <radialGradient id="spot" cx="0.14" cy="0.21" r="0.68">
      <stop offset="0" stop-color="#25365f" stop-opacity="0.7" />
      <stop offset="1" stop-color="#25365f" stop-opacity="0" />
    </radialGradient>
    <linearGradient id="markBg" x1="0.1" y1="0.1" x2="0.9" y2="0.9">
      <stop offset="0" stop-color="#1e2330" />
      <stop offset="1" stop-color="#090b12" />
    </linearGradient>
    <linearGradient id="markShine" x1="0.2" y1="0.05" x2="0.8" y2="1">
      <stop offset="0" stop-color="#ffffff" stop-opacity="0.055" />
      <stop offset="1" stop-color="#ffffff" stop-opacity="0" />
    </linearGradient>
    <pattern id="markStripe" width="36" height="36" patternUnits="userSpaceOnUse" patternTransform="rotate(-35)">
      <rect width="18" height="36" fill="#ffffff" fill-opacity="0.04" />
    </pattern>
    <linearGradient id="markFill" x1="0.5" y1="0.14" x2="0.5" y2="0.95">
      <stop offset="0" stop-color="#dce9ff" />
      <stop offset="1" stop-color="#71a8ff" />
    </linearGradient>
    <linearGradient id="title" x1="0" y1="0" x2="1" y2="0">
      <stop offset="0" stop-color="#ecf3ff" />
      <stop offset="1" stop-color="#7aaefe" />
    </linearGradient>
  </defs>

  <rect width="1200" height="630" fill="url(#bg)" />
  <circle cx="210" cy="180" r="320" fill="url(#spot)" />

  <g transform="translate(108 116)">
    <rect x="0" y="0" width="368" height="368" rx="52" fill="url(#markBg)" />
    <rect x="0" y="0" width="368" height="368" rx="52" fill="url(#markShine)" />
    <rect x="0" y="0" width="368" height="368" rx="52" fill="url(#markStripe)" />
    <g transform="translate(0 0) scale(0.359375)">
      <path
        fill="url(#markFill)"
        fill-rule="evenodd"
        d="M168 789 L252 225 H410 C569 225 694 332 714 486 C647 506 595 564 580 639 C573 673 575 705 586 732 C546 768 496 791 436 793 H284 L301 636 H414 C499 621 559 548 559 456 C559 376 498 311 417 311 H303 L252 789 Z
           M283 789 L334 343 H411 C473 343 523 394 523 456 C523 518 474 570 414 583 H331 L310 789 Z"
      />
      <path
        fill="url(#markFill)"
        fill-rule="evenodd"
        d="M728 661
           m -163 0
           a 163 163 0 1 0 326 0
           a 163 163 0 1 0 -326 0
           M728 661
           m -66 0
           a 66 66 0 1 1 132 0
           a 66 66 0 1 1 -132 0"
      />
    </g>
  </g>

  <text
    x="520"
    y="300"
    font-size="98"
    font-weight="700"
    fill="url(#title)"
    font-family="Calibri, 'Gill Sans', 'Gill Sans MT', 'Myriad Pro', 'Myriad', 'DejaVu Sans Condensed', 'Liberation Sans', 'Nimbus Sans L', Tahoma, Geneva, 'Helvetica Neue', Helvetica, Arial, sans-serif"
  >
    DoWhiz
  </text>
  <text
    x="520"
    y="360"
    font-size="30"
    font-weight="500"
    fill="#bfcbec"
    font-family="Calibri, 'Gill Sans', 'Gill Sans MT', 'Myriad Pro', 'Myriad', 'DejaVu Sans Condensed', 'Liberation Sans', 'Nimbus Sans L', Tahoma, Geneva, 'Helvetica Neue', Helvetica, Arial, sans-serif"
  >
    Multi-channel digital employees across your tools.
  </text>
</svg>
