<svg width="24" height="24" viewBox="0 0 24 24" fill="none" xmlns="http://www.w3.org/2000/svg">
<mask id="mask0_25_462" style="mask-type:alpha" maskUnits="userSpaceOnUse" x="0" y="0" width="24" height="24">
<rect width="24" height="24" fill="#D9D9D9"/>
</mask>
<g mask="url(#mask0_25_462)">
<path d="M15.6875 22H18.1875L18.375 20.4375C18.5417 20.375 18.6927 20.3021 18.8281 20.2188C18.9635 20.1354 19.0833 20.0417 19.1875 19.9375L20.625 20.5625L21.875 18.4375L20.625 17.5C20.6667 17.3333 20.6875 17.1667 20.6875 17C20.6875 16.8333 20.6667 16.6667 20.625 16.5L21.875 15.5625L20.625 13.4375L19.1875 14.0625C19.0833 13.9583 18.9635 13.8646 18.8281 13.7813C18.6927 13.6979 18.5417 13.625 18.375 13.5625L18.1875 12H15.6875L15.5 13.5625C15.3333 13.625 15.1823 13.6979 15.0469 13.7813C14.9115 13.8646 14.7917 13.9583 14.6875 14.0625L13.25 13.4375L12 15.5625L13.25 16.5C13.2083 16.6667 13.1875 16.8333 13.1875 17C13.1875 17.1667 13.2083 17.3333 13.25 17.5L12 18.4375L13.25 20.5625L14.6875 19.9375C14.7917 20.0417 14.9115 20.1354 15.0469 20.2188C15.1823 20.3021 15.3333 20.375 15.5 20.4375L15.6875 22ZM15.6094 18.3281C15.2448 17.9635 15.0625 17.5208 15.0625 17C15.0625 16.4792 15.2448 16.0365 15.6094 15.6719C15.974 15.3073 16.4167 15.125 16.9375 15.125C17.4583 15.125 17.901 15.3073 18.2656 15.6719C18.6302 16.0365 18.8125 16.4792 18.8125 17C18.8125 17.5208 18.6302 17.9635 18.2656 18.3281C17.901 18.6927 17.4583 18.875 16.9375 18.875C16.4167 18.875 15.974 18.6927 15.6094 18.3281Z" fill="#2C2C2E"/>
<path d="M5 4V10.025V10V20V4ZM5 22C4.45 22 3.97917 21.8042 3.5875 21.4125C3.19583 21.0208 3 20.55 3 20V4C3 3.45 3.19583 2.97917 3.5875 2.5875C3.97917 2.19583 4.45 2 5 2H13L19 8V10.5C18.6833 10.3667 18.3583 10.2625 18.025 10.1875C17.6917 10.1125 17.35 10.0583 17 10.025V9H12V4H5V20H11.025C11.2917 20.4 11.5917 20.7708 11.925 21.1125C12.2583 21.4542 12.625 21.75 13.025 22H5Z" fill="#2C2C2E"/>
</g>
</svg>
