<svg width="24" height="24" viewBox="0 0 24 24" fill="none" xmlns="http://www.w3.org/2000/svg">
<mask id="mask0_22_452" style="mask-type:alpha" maskUnits="userSpaceOnUse" x="0" y="0" width="24" height="24">
<rect width="24" height="24" fill="#D9D9D9"/>
</mask>
<g mask="url(#mask0_22_452)">
<path d="M10.475 22C10.0084 22 9.57088 21.9 9.16255 21.7C8.75422 21.5 8.40838 21.2167 8.12505 20.85L2.67505 13.925L3.15005 13.425C3.48338 13.075 3.88338 12.8667 4.35005 12.8C4.81672 12.7333 5.25005 12.825 5.65005 13.075L7.50005 14.2V6C7.50005 5.71667 7.59588 5.47917 7.78755 5.2875C7.97922 5.09583 8.21672 5 8.50005 5C8.78338 5 9.02505 5.09583 9.22505 5.2875C9.42505 5.47917 9.52505 5.71667 9.52505 6V17.8L7.10005 16.3L9.70005 19.625C9.80005 19.7417 9.91672 19.8333 10.05 19.9C10.1834 19.9667 10.325 20 10.475 20H16C16.55 20 17.0209 19.8042 17.4125 19.4125C17.8042 19.0208 18 18.55 18 18V14C18 13.7167 17.9042 13.4792 17.7125 13.2875C17.5209 13.0958 17.2834 13 17 13H11.525V11H17C17.8334 11 18.5417 11.2917 19.125 11.875C19.7084 12.4583 20 13.1667 20 14V18C20 19.1 19.6084 20.0417 18.825 20.825C18.0417 21.6083 17.1 22 16 22H10.475ZM4.17505 8.5C3.95838 8.13333 3.79172 7.7375 3.67505 7.3125C3.55838 6.8875 3.50005 6.45 3.50005 6C3.50005 4.61667 3.98755 3.4375 4.96255 2.4625C5.93755 1.4875 7.11672 1 8.50005 1C8.95005 1 9.38338 1.05417 9.80005 1.1625C10.2167 1.27083 10.6084 1.43333 10.975 1.65C11.7584 2.08333 12.375 2.69167 12.825 3.475C13.275 4.25833 13.5 5.1 13.5 6C13.5 6.45 13.4417 6.8875 13.325 7.3125C13.2084 7.7375 13.0417 8.13333 12.825 8.5L11.1 7.5C11.2334 7.26667 11.3334 7.02917 11.4 6.7875C11.4667 6.54583 11.5 6.28333 11.5 6C11.5 5.46667 11.3625 4.96667 11.0875 4.5C10.8125 4.03333 10.4417 3.66667 9.97505 3.4C9.75838 3.26667 9.52505 3.16667 9.27505 3.1C9.02505 3.03333 8.76672 3 8.50005 3C7.66672 3 6.95838 3.29167 6.37505 3.875C5.79172 4.45833 5.50005 5.16667 5.50005 6C5.50005 6.28333 5.53338 6.54583 5.60005 6.7875C5.66672 7.02917 5.76672 7.26667 5.90005 7.5L4.17505 8.5ZM17.975 3.4L18.975 1.65C19.7584 2.08333 20.375 2.69167 20.825 3.475C21.275 4.25833 21.5 5.1 21.5 6C21.5 6.45 21.4417 6.8875 21.325 7.3125C21.2084 7.7375 21.0417 8.13333 20.825 8.5L19.1 7.5C19.2334 7.26667 19.3334 7.02917 19.4 6.7875C19.4667 6.54583 19.5 6.28333 19.5 6C19.5 5.46667 19.3625 4.96667 19.0875 4.5C18.8125 4.03333 18.4417 3.66667 17.975 3.4ZM13.975 3.4L14.975 1.65C15.7584 2.08333 16.375 2.69167 16.825 3.475C17.275 4.25833 17.5 5.1 17.5 6C17.5 6.45 17.4417 6.8875 17.325 7.3125C17.2084 7.7375 17.0417 8.13333 16.825 8.5L15.1 7.5C15.2334 7.26667 15.3334 7.02917 15.4 6.7875C15.4667 6.54583 15.5 6.28333 15.5 6C15.5 5.46667 15.3625 4.96667 15.0875 4.5C14.8125 4.03333 14.4417 3.66667 13.975 3.4Z" fill="#0885FE"/>
</g>
</svg>
