<svg width="32" height="32" viewBox="0 0 32 32" fill="none" xmlns="http://www.w3.org/2000/svg">
<rect width="32" height="32" rx="5" fill="white"/>
<g clip-path="url(#clip0_6402_3222)">
<path d="M29 9.66572C28.3267 10.8527 27.1099 11.7008 25.7127 11.6461C25.1223 10.5072 24.3428 9.5159 23.3961 8.62911C23.4664 6.52713 25.344 4.90503 27.0832 4C27.4933 5.92949 27.2161 7.64999 25.9448 9.20187C27.0418 9.02772 28.0075 9.2262 29 9.66517V9.66572Z" fill="#2C2C2E"/>
<path d="M4.36328 15.578L4.02066 19.7057C3.73905 23.0925 6.37212 25.9995 9.72092 25.9995H20.4771C23.8259 25.9995 26.4584 23.0925 26.1773 19.7057L25.8347 15.5835C25.418 10.568 21.286 6.71289 16.327 6.71289H13.8655C8.90987 6.71234 4.77997 10.5658 4.36328 15.578Z" fill="#2C2C2E"/>
<path d="M17.2286 20.4572C15.9719 20.0459 14.6843 20.0353 13.4189 20.3333C11.6329 20.7541 10.4029 21.5436 8.5221 21.3097C6.68483 21.0814 5.40316 19.5068 5.43693 17.652C5.45382 16.7209 5.6461 15.8579 6.29047 15.153C6.8172 14.577 7.57596 14.1761 8.40009 14.175L21.6085 14.1606C22.4936 14.1595 23.3172 14.478 23.9044 15.1204C24.5602 15.838 24.7557 16.7436 24.7617 17.6984C24.7732 19.5112 23.5552 21.0382 21.7632 21.2937C20.7675 21.4357 19.7826 21.2926 18.824 20.9785L17.2286 20.4561V20.4572ZM11.8714 18.4741C12.0594 18.1175 12.1765 17.7437 12.1329 17.3507C12.097 17.0283 11.884 16.8116 11.5779 16.7447L9.13053 16.2107C8.8255 16.1443 8.53136 16.3627 8.48234 16.6734C8.41861 17.0764 8.42242 17.4961 8.50195 17.8914C8.68987 18.8262 9.46443 19.3979 10.3822 19.3747C11.019 19.3586 11.5561 19.0723 11.8709 18.4741H11.8714ZM19.9537 19.3774C20.7451 19.3758 21.3857 18.9047 21.6194 18.1595C21.7643 17.6979 21.8035 17.1793 21.7081 16.7127C21.627 16.3157 21.2849 16.1714 20.9374 16.2516L18.5859 16.7934C18.2531 16.8702 18.0429 17.1505 18.0521 17.5071C18.0679 18.1147 18.3485 18.7007 18.8234 19.0728C19.1421 19.3222 19.5255 19.3791 19.9537 19.3786V19.3774Z" fill="white"/>
<path d="M11.8714 18.4741C11.5561 19.0723 11.0195 19.3592 10.3828 19.3747C9.46496 19.3973 8.6904 18.8257 8.50248 17.8913C8.42296 17.4955 8.41914 17.0764 8.48287 16.6734C8.5319 16.3627 8.82658 16.1443 9.13106 16.2106L11.5784 16.7447C11.8845 16.8116 12.0975 17.0283 12.1334 17.3506C12.177 17.7437 12.0599 18.1175 11.872 18.4741H11.8714Z" fill="#2C2C2E"/>
<path d="M19.9537 19.3773C19.5256 19.3784 19.1421 19.3215 18.8235 19.0716C18.3485 18.6995 18.068 18.1135 18.0522 17.5059C18.0429 17.1498 18.2532 16.869 18.586 16.7921L20.9374 16.2503C21.285 16.1702 21.6276 16.3145 21.7082 16.7114C21.8035 17.178 21.7643 17.6966 21.6194 18.1582C21.3857 18.9041 20.7452 19.3745 19.9537 19.3762V19.3773Z" fill="#2C2C2E"/>
</g>
<defs>
<clipPath id="clip0_6402_3222">
<rect width="25" height="22" fill="white" transform="translate(4 4)"/>
</clipPath>
</defs>
</svg>
