<svg width="42" height="42" viewBox="0 0 42 42" fill="none" xmlns="http://www.w3.org/2000/svg">
<mask id="mask0_11_327" style="mask-type:alpha" maskUnits="userSpaceOnUse" x="0" y="0" width="42" height="42">
<rect width="42" height="42" fill="#D9D9D9"/>
</mask>
<g mask="url(#mask0_11_327)">
<path d="M7 26.25C5.54167 26.25 4.30208 25.7396 3.28125 24.7188C2.26042 23.6979 1.75 22.4583 1.75 21C1.75 19.5417 2.26042 18.3021 3.28125 17.2812C4.30208 16.2604 5.54167 15.75 7 15.75V12.25C7 11.2875 7.34271 10.4635 8.02813 9.77813C8.71354 9.09271 9.5375 8.75 10.5 8.75H15.75C15.75 7.29167 16.2604 6.05208 17.2812 5.03125C18.3021 4.01042 19.5417 3.5 21 3.5C22.4583 3.5 23.6979 4.01042 24.7188 5.03125C25.7396 6.05208 26.25 7.29167 26.25 8.75H31.5C32.4625 8.75 33.2865 9.09271 33.9719 9.77813C34.6573 10.4635 35 11.2875 35 12.25V15.75C36.4583 15.75 37.6979 16.2604 38.7188 17.2812C39.7396 18.3021 40.25 19.5417 40.25 21C40.25 22.4583 39.7396 23.6979 38.7188 24.7188C37.6979 25.7396 36.4583 26.25 35 26.25V33.25C35 34.2125 34.6573 35.0365 33.9719 35.7219C33.2865 36.4073 32.4625 36.75 31.5 36.75H10.5C9.5375 36.75 8.71354 36.4073 8.02813 35.7219C7.34271 35.0365 7 34.2125 7 33.25V26.25ZM17.6094 21.9844C18.1198 21.474 18.375 20.8542 18.375 20.125C18.375 19.3958 18.1198 18.776 17.6094 18.2656C17.099 17.7552 16.4792 17.5 15.75 17.5C15.0208 17.5 14.401 17.7552 13.8906 18.2656C13.3802 18.776 13.125 19.3958 13.125 20.125C13.125 20.8542 13.3802 21.474 13.8906 21.9844C14.401 22.4948 15.0208 22.75 15.75 22.75C16.4792 22.75 17.099 22.4948 17.6094 21.9844ZM28.1094 21.9844C28.6198 21.474 28.875 20.8542 28.875 20.125C28.875 19.3958 28.6198 18.776 28.1094 18.2656C27.599 17.7552 26.9792 17.5 26.25 17.5C25.5208 17.5 24.901 17.7552 24.3906 18.2656C23.8802 18.776 23.625 19.3958 23.625 20.125C23.625 20.8542 23.8802 21.474 24.3906 21.9844C24.901 22.4948 25.5208 22.75 26.25 22.75C26.9792 22.75 27.599 22.4948 28.1094 21.9844ZM14 29.75H28V26.25H14V29.75ZM10.5 33.25H31.5V12.25H10.5V33.25Z" fill="#2C2C2E"/>
</g>
</svg>
