<svg width="42" height="42" viewBox="0 0 42 42" fill="none" xmlns="http://www.w3.org/2000/svg">
<mask id="mask0_11_312" style="mask-type:alpha" maskUnits="userSpaceOnUse" x="0" y="0" width="42" height="42">
<rect width="42" height="42" fill="#D9D9D9"/>
</mask>
<g mask="url(#mask0_11_312)">
<path d="M16.1874 38.5L15.4874 32.9C15.1082 32.7542 14.751 32.5792 14.4155 32.375C14.0801 32.1708 13.752 31.9521 13.4312 31.7188L8.22491 33.9062L3.41241 25.5938L7.91866 22.1813C7.8895 21.9771 7.87491 21.7802 7.87491 21.5906V20.4094C7.87491 20.2198 7.8895 20.0229 7.91866 19.8187L3.41241 16.4062L8.22491 8.09375L13.4312 10.2812C13.752 10.0479 14.0874 9.82917 14.4374 9.625C14.7874 9.42083 15.1374 9.24583 15.4874 9.1L16.1874 3.5H25.8124L26.5124 9.1C26.8916 9.24583 27.2489 9.42083 27.5843 9.625C27.9197 9.82917 28.2478 10.0479 28.5687 10.2812L33.7749 8.09375L38.5874 16.4062L35.3499 18.8563C34.7082 18.5354 34.052 18.2656 33.3812 18.0469C32.7103 17.8281 31.9957 17.675 31.2374 17.5875L33.9937 15.4875L32.2874 12.5125L27.9562 14.35C27.3145 13.6792 26.6072 13.1177 25.8343 12.6656C25.0614 12.2135 24.2228 11.8708 23.3187 11.6375L22.7499 7H19.2937L18.6812 11.6375C17.777 11.8708 16.9385 12.2135 16.1655 12.6656C15.3926 13.1177 14.6853 13.6646 14.0437 14.3063L9.71241 12.5125L8.00616 15.4875L11.7687 18.2875C11.6228 18.725 11.5207 19.1625 11.4624 19.6C11.4041 20.0375 11.3749 20.5042 11.3749 21C11.3749 21.4667 11.4041 21.9188 11.4624 22.3563C11.5207 22.7938 11.6228 23.2313 11.7687 23.6688L8.00616 26.5125L9.71241 29.4875L14.0437 27.65C14.5395 28.1458 15.0718 28.5906 15.6405 28.9844C16.2093 29.3781 16.8291 29.7062 17.4999 29.9688C17.5291 31.6312 17.8718 33.1917 18.528 34.65C19.1843 36.1083 20.0666 37.3917 21.1749 38.5H16.1874ZM17.9812 26.2938C18.1562 25.7104 18.3676 25.149 18.6155 24.6094C18.8635 24.0698 19.1478 23.5521 19.4687 23.0563C19.1478 22.8229 18.8999 22.524 18.7249 22.1594C18.5499 21.7948 18.4624 21.4083 18.4624 21C18.4624 20.2708 18.7176 19.651 19.228 19.1406C19.7385 18.6302 20.3582 18.375 21.0874 18.375C21.4957 18.375 21.8895 18.4698 22.2687 18.6594C22.6478 18.849 22.9541 19.1042 23.1874 19.425C23.6832 19.1042 24.1937 18.8198 24.7187 18.5719C25.2437 18.324 25.7978 18.1271 26.3812 17.9813C25.8562 17.0479 25.127 16.2969 24.1937 15.7281C23.2603 15.1594 22.2249 14.875 21.0874 14.875C19.3666 14.875 17.9155 15.4729 16.7343 16.6688C15.553 17.8646 14.9624 19.3083 14.9624 21C14.9624 22.1083 15.2322 23.1365 15.7718 24.0844C16.3114 25.0323 17.0478 25.7688 17.9812 26.2938ZM29.7499 35L34.9999 29.75L29.7499 24.5L28.5249 25.725L31.6749 28.875H24.4999V30.625H31.6312L28.5249 33.775L29.7499 35ZM23.5593 35.9406C21.853 34.2344 20.9999 32.1708 20.9999 29.75C20.9999 27.3292 21.853 25.2656 23.5593 23.5594C25.2655 21.8531 27.3291 21 29.7499 21C32.1707 21 34.2343 21.8531 35.9405 23.5594C37.6468 25.2656 38.4999 27.3292 38.4999 29.75C38.4999 32.1708 37.6468 34.2344 35.9405 35.9406C34.2343 37.6469 32.1707 38.5 29.7499 38.5C27.3291 38.5 25.2655 37.6469 23.5593 35.9406Z" fill="#0885FE"/>
</g>
</svg>
