<svg width="42" height="42" viewBox="0 0 42 42" fill="none" xmlns="http://www.w3.org/2000/svg">
<mask id="mask0_11_301" style="mask-type:alpha" maskUnits="userSpaceOnUse" x="0" y="0" width="42" height="42">
<rect width="42" height="42" fill="#D9D9D9"/>
</mask>
<g mask="url(#mask0_11_301)">
<path d="M14.1969 24.3031C13.774 23.8802 13.5625 23.3625 13.5625 22.75C13.5625 22.1375 13.774 21.6198 14.1969 21.1969C14.6198 20.774 15.1375 20.5625 15.75 20.5625C16.3625 20.5625 16.8802 20.774 17.3031 21.1969C17.726 21.6198 17.9375 22.1375 17.9375 22.75C17.9375 23.3625 17.726 23.8802 17.3031 24.3031C16.8802 24.726 16.3625 24.9375 15.75 24.9375C15.1375 24.9375 14.6198 24.726 14.1969 24.3031ZM24.6969 24.3031C24.274 23.8802 24.0625 23.3625 24.0625 22.75C24.0625 22.1375 24.274 21.6198 24.6969 21.1969C25.1198 20.774 25.6375 20.5625 26.25 20.5625C26.8625 20.5625 27.3802 20.774 27.8031 21.1969C28.226 21.6198 28.4375 22.1375 28.4375 22.75C28.4375 23.3625 28.226 23.8802 27.8031 24.3031C27.3802 24.726 26.8625 24.9375 26.25 24.9375C25.6375 24.9375 25.1198 24.726 24.6969 24.3031ZM21 35C24.9083 35 28.2188 33.6438 30.9313 30.9313C33.6438 28.2188 35 24.9083 35 21C35 20.3 34.9563 19.6219 34.8688 18.9656C34.7813 18.3094 34.6208 17.675 34.3875 17.0625C33.775 17.2083 33.1625 17.3177 32.55 17.3906C31.9375 17.4635 31.2958 17.5 30.625 17.5C27.9708 17.5 25.4625 16.9313 23.1 15.7938C20.7375 14.6563 18.725 13.0667 17.0625 11.025C16.1292 13.3 14.7948 15.276 13.0594 16.9531C11.324 18.6302 9.30417 19.8917 7 20.7375V21C7 24.9083 8.35625 28.2188 11.0688 30.9313C13.7813 33.6438 17.0917 35 21 35ZM21 38.5C18.5792 38.5 16.3042 38.0406 14.175 37.1219C12.0458 36.2031 10.1937 34.9563 8.61875 33.3813C7.04375 31.8063 5.79688 29.9542 4.87813 27.825C3.95937 25.6958 3.5 23.4208 3.5 21C3.5 18.5792 3.95937 16.3042 4.87813 14.175C5.79688 12.0458 7.04375 10.1937 8.61875 8.61875C10.1937 7.04375 12.0458 5.79688 14.175 4.87813C16.3042 3.95937 18.5792 3.5 21 3.5C23.4208 3.5 25.6958 3.95937 27.825 4.87813C29.9542 5.79688 31.8063 7.04375 33.3813 8.61875C34.9563 10.1937 36.2031 12.0458 37.1219 14.175C38.0406 16.3042 38.5 18.5792 38.5 21C38.5 23.4208 38.0406 25.6958 37.1219 27.825C36.2031 29.9542 34.9563 31.8063 33.3813 33.3813C31.8063 34.9563 29.9542 36.2031 27.825 37.1219C25.6958 38.0406 23.4208 38.5 21 38.5ZM18.6375 7.21875C19.8625 9.26042 21.525 10.901 23.625 12.1406C25.725 13.3802 28.0583 14 30.625 14C31.0333 14 31.4271 13.9781 31.8063 13.9344C32.1854 13.8906 32.5792 13.8396 32.9875 13.7812C31.7625 11.7396 30.1 10.099 28 8.85938C25.9 7.61979 23.5667 7 21 7C20.5917 7 20.1979 7.02188 19.8187 7.06563C19.4396 7.10938 19.0458 7.16042 18.6375 7.21875ZM7.74375 16.5812C9.23125 15.7354 10.5292 14.6417 11.6375 13.3C12.7458 11.9583 13.5771 10.4563 14.1313 8.79375C12.6438 9.63958 11.3458 10.7333 10.2375 12.075C9.12917 13.4167 8.29792 14.9187 7.74375 16.5812Z" fill="#2C2C2E"/>
</g>
</svg>
